<?xml version="1.0" standalone="no"?>
<!DOCTYPE svg PUBLIC "-//W3C//DTD SVG 1.1//EN" "http://www.w3.org/Graphics/SVG/1.1/DTD/svg11.dtd" >
<svg xmlns="http://www.w3.org/2000/svg">
<metadata></metadata>
<defs>
<font id="DavidDeviceregular" horiz-adv-x="1024" >
<font-face units-per-em="2048" ascent="1638" descent="-410" />
<missing-glyph horiz-adv-x="500" />
<glyph horiz-adv-x="0" />
<glyph horiz-adv-x="2048" />
<glyph unicode=" " />
<glyph unicode="!" horiz-adv-x="512" d="M0 0v254h254v-254h-254zM0 512v1022h254v-1022h-254z" />
<glyph unicode="&#x22;" d="M0 1024v510h254v-510h-254zM512 1024v510h254v-510h-254z" />
<glyph unicode="#" horiz-adv-x="1536" d="M0 512v254l256 2v256h-256v254l256 2v510h254v-512h256v-254h-254l-2 -258l258 2v1022h254v-512h256v-254h-254l-2 -258h256v-254h-254l-2 -512h-254v512h-256l-2 -512h-254v512h-256z" />
<glyph unicode="$" d="M0 0v254h510v-510h-254v256h-256zM0 1024v254h254v-254h-254zM256 768v254h254v-254h-254zM256 1280v510h254v-256h256v-254h-510zM512 256v510h254v-510h-254z" />
<glyph unicode="%" d="M0 0v510h254v-510h-254zM0 1280v254h254v-254h-254zM256 512v510h254v-510h-254zM512 0v254h254v-254h-254zM512 1024v510h254v-510h-254z" />
<glyph unicode="&#x26;" horiz-adv-x="1280" d="M0 0v768h256v254h254v-510h-254l-2 -258l258 2v254h254v-256h256v-254h-1022zM0 1024v254h254v-254h-254zM256 1280v254h254v-254h-254zM512 1024v254h254v-254h-254zM768 512v254h254v-254h-254z" />
<glyph unicode="'" horiz-adv-x="512" d="M0 1024v510h254v-510h-254z" />
<glyph unicode="(" horiz-adv-x="768" d="M0 0v1534h254v-1534h-254zM256 -2h254v-254h-254v254zM256 1536v254h254v-254h-254z" />
<glyph unicode=")" horiz-adv-x="768" d="M0 -2h254v-254h-254v254zM0 1536v254h254v-254h-254zM256 0v1534h254v-1534h-254z" />
<glyph unicode="*" d="M0 0v1278h510v-254h-254l-2 -770l258 2v1022h254v-1278h-766z" />
<glyph unicode="+" d="M0 512v254l256 2v254h254v-256h256v-254h-254l-2 -256h-254v256h-256z" />
<glyph unicode="," horiz-adv-x="768" d="M0 -2h254v-254h-254v254zM256 0v254h254v-254h-254z" />
<glyph unicode="-" horiz-adv-x="768" d="M0 512v254h510v-254h-510z" />
<glyph unicode="." horiz-adv-x="512" d="M0 0v254h254v-254h-254z" />
<glyph unicode="/" d="M0 0v510h254v-510h-254zM256 512v510h254v-510h-254zM512 1024v510h254v-510h-254z" />
<glyph unicode="0" d="M0 256v1022h254v-1022h-254zM256 0v254h254v-254h-254zM256 1280v254h254v-254h-254zM512 256v1022h254v-1022h-254z" />
<glyph unicode="1" horiz-adv-x="512" d="M0 0v1534h254v-1534h-254z" />
<glyph unicode="2" d="M0 0v766h254v-512h512v-254h-766zM0 1280v254h510v-254h-254h-256zM256 768v254h254v-254h-254zM512 1024v254h254v-254h-254z" />
<glyph unicode="3" d="M0 0v254h510v-254h-510zM0 1280v254h510v-254h-254h-256zM256 768v254h254v-254h-254zM512 256v510h254v-510h-254zM512 1024v254h254v-254h-254z" />
<glyph unicode="4" d="M0 512v766h254v-512l258 2v766h254v-1534h-254v512h-512z" />
<glyph unicode="5" d="M0 0v254h510v-254h-510zM0 768v766h766v-254h-510l-2 -258h256v-254h-254h-256zM512 256v510h254v-510h-254z" />
<glyph unicode="6" d="M0 0v1278h254v-256h256v-254h-254l-2 -514l258 2v510h254v-766h-766zM256 1280v254h510v-254h-510z" />
<glyph unicode="7" d="M0 1280v254h766v-766h-254v512h-512zM256 0v766h254v-766h-254z" />
<glyph unicode="8" d="M0 0v766h254v-512l258 2v510h254v-766h-766zM0 1024v510h766v-510h-254v256h-256l-2 -256h-254zM256 768v254h254v-254h-254z" />
<glyph unicode="9" d="M0 0v254h510v-254h-510zM0 768v766h766v-1278h-254v256h-256v256h256v512h-256l-2 -512h-254z" />
<glyph unicode=":" horiz-adv-x="512" d="M0 0v254h254v-254h-254zM0 768v254h254v-254h-254z" />
<glyph unicode=";" horiz-adv-x="768" d="M0 -2h254v-254h-254v254zM256 0v254h254v-254h-254zM256 768v254h254v-254h-254z" />
<glyph unicode="&#x3c;" horiz-adv-x="1280" d="M0 256v254h510v-254h-254h-256zM512 0v254h510v-254h-510zM512 512v254h510v-254h-510z" />
<glyph unicode="=" horiz-adv-x="768" d="M0 256v254h510v-254h-510zM0 768v254h510v-254h-510z" />
<glyph unicode="&#x3e;" horiz-adv-x="1280" d="M0 0v254h510v-254h-510zM0 512v254h510v-254h-510zM512 256v254h510v-254h-510z" />
<glyph unicode="?" d="M0 1024v254h254v-254h-254zM256 0v254h254v-254h-254zM256 512v254h254v-254h-254zM256 1280v254h254v-254h-254zM512 768v510h254v-510h-254z" />
<glyph unicode="@" d="M0 0v1278h510v-254h-254l-2 -770l258 2v1022h254v-1278h-766z" />
<glyph unicode="A" d="M0 0v1278h254v-512l258 2v510h254v-1278h-254v512h-256l-2 -512h-254zM256 1280v254h254v-254h-254z" />
<glyph unicode="B" d="M0 0v1534h510v-254h-254l-2 -258h256v-254h-254l-2 -514l258 2v510h254v-766h-766zM512 1024v254h254v-254h-254z" />
<glyph unicode="C" d="M0 256v1022h254v-1022h-254zM256 0v254h254v-254h-254zM256 1280v254h254v-254h-254zM512 256v254h254v-254h-254zM512 1024v254h254v-254h-254z" />
<glyph unicode="D" d="M0 0v1534h510v-254h-254l-2 -1026h256v-254h-510zM512 256v1022h254v-1022h-254z" />
<glyph unicode="E" horiz-adv-x="768" d="M0 0v1534h510v-254h-254l-2 -258h256v-254h-254l-2 -514h256v-254h-510z" />
<glyph unicode="F" horiz-adv-x="768" d="M0 0v1534h510v-254h-254l-2 -258h256v-254h-254l-2 -768h-254z" />
<glyph unicode="G" d="M0 256v1022h254v-1022h-254zM256 0v256h256v510h254v-766h-510zM256 1280v254h254v-254h-254zM512 1024v254h254v-254h-254z" />
<glyph unicode="H" d="M0 0v1534h254v-512l258 2v510h254v-1534h-254v768h-256l-2 -768h-254z" />
<glyph unicode="I" horiz-adv-x="512" d="M0 0v1534h254v-1534h-254z" />
<glyph unicode="J" d="M0 256v254h254v-254h-254zM256 0v254h254v-254h-254zM512 256v1278h254v-1278h-254z" />
<glyph unicode="K" d="M0 0v1534h254v-768h256v-254h-254l-2 -512h-254zM512 0v510h254v-510h-254zM512 768v766h254v-766h-254z" />
<glyph unicode="L" d="M0 0v1534h254v-1280h512v-254h-766z" />
<glyph unicode="M" horiz-adv-x="1536" d="M0 0v1534h254v-256h256v-510h-254l-2 -768h-254zM512 512v254h254v-254h-254zM768 768v510l256 2v254h254v-1534h-254v768h-256z" />
<glyph unicode="N" horiz-adv-x="1280" d="M0 0v1534h254v-512h256v-254h-254l-2 -768h-254zM512 512v254l256 2v766h254v-1534h-254v512h-256z" />
<glyph unicode="O" d="M0 256v1022h254v-1022h-254zM256 0v254h254v-254h-254zM256 1280v254h254v-254h-254zM512 256v1022h254v-1022h-254z" />
<glyph unicode="P" d="M0 0v1534h510v-254h-254l-2 -514h256v-254h-254l-2 -512h-254zM512 768v510h254v-510h-254z" />
<glyph unicode="Q" horiz-adv-x="1280" d="M0 256v1022h254v-1022h-254zM256 0v254l256 2v1022h254v-1278h-254h-256zM256 1280v254h254v-254h-254zM768 -2h254v-254h-254v254z" />
<glyph unicode="R" d="M0 0v1534h510v-254h-254l-2 -514h256v-254h-254l-2 -512h-254zM512 0v510h254v-510h-254zM512 768v510h254v-510h-254z" />
<glyph unicode="S" d="M0 0v254h510v-254h-510zM0 1024v254h254v-254h-254zM256 768v254h254v-254h-254zM256 1280v254h510v-254h-510zM512 256v510h254v-510h-254z" />
<glyph unicode="T" d="M0 1280v254h766v-254h-254l-2 -1280h-254v1280h-256z" />
<glyph unicode="U" d="M0 256v1278h254v-1278h-254zM256 0v254h254v-254h-254zM512 256v1278h254v-1278h-254z" />
<glyph unicode="V" d="M0 512v1022h254v-1022h-254zM256 0v510h254v-510h-254zM512 512v1022h254v-1022h-254z" />
<glyph unicode="W" horiz-adv-x="1536" d="M0 512v1022h254v-1022h-254zM256 0v510h254v-510h-254zM512 512v510h254v-510h-254zM768 0v510h254v-510h-254zM1024 512v1022h254v-1022h-254z" />
<glyph unicode="X" d="M0 0v510h254v-510h-254zM0 1024v510h254v-510h-254zM256 512v510h254v-510h-254zM512 0v510h254v-510h-254zM512 1024v510h254v-510h-254z" />
<glyph unicode="Y" d="M0 768v766h254v-766h-254zM256 0v766h254v-766h-254zM512 768v766h254v-766h-254z" />
<glyph unicode="Z" d="M0 0v510h254v-256h512v-254h-766zM0 1280v254h766v-510h-254v256h-512zM256 512v510h254v-510h-254z" />
<glyph unicode="[" horiz-adv-x="768" d="M0 0v1790h510v-254h-254l-2 -1538h256v-254h-510v256z" />
<glyph unicode="\" d="M0 1024v510h254v-510h-254zM256 512v510h254v-510h-254zM512 0v510h254v-510h-254z" />
<glyph unicode="]" horiz-adv-x="768" d="M0 0h256v1536h-256v254h510v-2046h-510v256z" />
<glyph unicode="^" d="M0 1280v254h254v-254h-254zM256 1536v254h254v-254h-254zM512 1280v254h254v-254h-254z" />
<glyph unicode="_" horiz-adv-x="1280" d="M0 -2h1022v-254h-1022v254z" />
<glyph unicode="`" horiz-adv-x="768" d="M0 1536v254h254v-254h-254zM256 1280v254h254v-254h-254z" />
<glyph unicode="a" d="M0 0v510h254v-256l258 2v256h-256v256h-256v254h510v-256h256v-766h-766z" />
<glyph unicode="b" d="M0 0v1534h254v-512h256v-254h-254l-2 -514l258 2v510h254v-766h-766z" />
<glyph unicode="c" d="M0 256v510h254v-510h-254zM256 0v254h510v-254h-510zM256 768v254h510v-254h-510z" />
<glyph unicode="d" d="M0 0v766h254v-512l258 2v512h-256v254l256 2v510h254v-1534h-766z" />
<glyph unicode="e" d="M0 256v510h254v-256h256v-256h256v-254h-510v256h-256zM256 768v254h254v-254h-254zM512 512v254h254v-254h-254z" />
<glyph unicode="f" horiz-adv-x="768" d="M0 0v1278h254v-256h256v-254h-254l-2 -768h-254zM256 1280v254h254v-254h-254z" />
<glyph unicode="g" d="M0 256v510h254v-510h-254zM0 -258h510v-254h-510v254zM256 0v254l256 2v510h254v-1022h-254v256h-256zM256 768v254h254v-254h-254z" />
<glyph unicode="h" d="M0 0v1534h254v-512h256v-254h-254l-2 -768h-254zM512 0v766h254v-766h-254z" />
<glyph unicode="i" horiz-adv-x="512" d="M0 0v1022h254v-1022h-254zM0 1280v254h254v-254h-254z" />
<glyph unicode="j" horiz-adv-x="768" d="M0 -258h254v-254h-254v254zM256 -256v1278h254v-1278h-254zM256 1280v254h254v-254h-254z" />
<glyph unicode="k" d="M0 0v1534h254v-768h256v-254h-254l-2 -512h-254zM512 0v510h254v-510h-254zM512 768v254h254v-254h-254z" />
<glyph unicode="l" horiz-adv-x="512" d="M0 0v1534h254v-1534h-254z" />
<glyph unicode="m" horiz-adv-x="1536" d="M0 0v1022h510v-254h-254l-2 -768h-254zM512 0v766h254v-766h-254zM768 768v254h254v-254h-254zM1024 0v766h254v-766h-254z" />
<glyph unicode="n" d="M0 0v1022h510v-254h-254l-2 -768h-254zM512 0v766h254v-766h-254z" />
<glyph unicode="o" d="M0 256v510h254v-510h-254zM256 0v254h254v-254h-254zM256 768v254h254v-254h-254zM512 256v510h254v-510h-254z" />
<glyph unicode="p" d="M0 0v1022h510v-254h-254l-2 -514h256v-254h-254l-2 -512h-254v512zM512 256v510h254v-510h-254z" />
<glyph unicode="q" d="M0 256v510h254v-510h-254zM256 0v254l256 2v510h254v-1278h-254v512h-256zM256 768v254h254v-254h-254z" />
<glyph unicode="r" horiz-adv-x="768" d="M0 0v1022h510v-254h-254l-2 -768h-254z" />
<glyph unicode="s" horiz-adv-x="768" d="M0 0v256h256v254h254v-510h-510zM0 512v510h510v-254h-254l-2 -256h-254z" />
<glyph unicode="t" d="M0 768v254l256 2v510h254v-512h256v-254h-254l-2 -768h-254v768h-256z" />
<glyph unicode="u" d="M0 256v766h254v-766h-254zM256 0v256h256v766h254v-1022h-510z" />
<glyph unicode="v" d="M0 256v766h254v-766h-254zM256 0v254h254v-254h-254zM512 256v766h254v-766h-254z" />
<glyph unicode="w" horiz-adv-x="1536" d="M0 256v766h254v-766h-254zM256 0v254h254v-254h-254zM512 256v510h254v-510h-254zM768 0v254h254v-254h-254zM1024 256v766h254v-766h-254z" />
<glyph unicode="x" d="M0 0v254h254v-254h-254zM0 768v254h254v-254h-254zM256 256v510h254v-510h-254zM512 0v254h254v-254h-254zM512 768v254h254v-254h-254z" />
<glyph unicode="y" d="M0 256v766h254v-766h-254zM0 -258h254v-254h-254v254zM256 254h254v-510h-254v510zM512 256v766h254v-766h-254z" />
<glyph unicode="z" horiz-adv-x="768" d="M0 0v510h254v-256h256v-254h-510zM0 768v254h510v-510h-254v256h-256z" />
<glyph unicode="{" d="M0 512v254h254v-254h-254zM256 0v510h254v-510h-254zM256 768v766h254v-766h-254zM512 -2h254v-254h-254v254zM512 1536v254h254v-254h-254z" />
<glyph unicode="|" horiz-adv-x="512" d="M0 0v1790h254v-2046h-254v256z" />
<glyph unicode="}" d="M0 -2h254v-254h-254v254zM0 1536v254h254v-254h-254zM256 0v510h254v-510h-254zM256 768v766h254v-766h-254zM512 512v254h254v-254h-254z" />
<glyph unicode="~" d="M0 0v1278h510v-254h-254l-2 -770l258 2v1022h254v-1278h-766z" />
<glyph d="M0 0v1278h510v-254h-254l-2 -770l258 2v1022h254v-1278h-766z" />
<glyph d="M0 0v1278h510v-254h-254l-2 -770l258 2v1022h254v-1278h-766z" />
<glyph d="M0 0v1278h510v-254h-254l-2 -770l258 2v1022h254v-1278h-766z" />
<glyph d="M0 0v510h254v-256h512v-254h-766zM0 1280v254h766v-510h-254v256h-512zM0 2048v254h254v-254h-254zM256 512v510h254v-510h-254zM256 1792v254h254v-254h-254zM512 2048v254h254v-254h-254z" />
<glyph d="M0 0v1278h510v-254h-254l-2 -770l258 2v1022h254v-1278h-766z" />
<glyph d="M0 0v1278h510v-254h-254l-2 -770l258 2v1022h254v-1278h-766z" />
<glyph d="M0 0v1278h510v-254h-254l-2 -770l258 2v1022h254v-1278h-766z" />
<glyph horiz-adv-x="768" d="M0 0v510h254v-256h256v-254h-510zM0 768v254h510v-510h-254v256h-256z" />
<glyph unicode="&#xa0;" />
<glyph unicode="&#xa1;" horiz-adv-x="512" d="M0 0v766h254v-1022h-254v256zM0 1024v254h254v-254h-254z" />
<glyph unicode="&#xa2;" d="M0 256v510h254v-510h-254zM256 254h510v-254h-254l-2 -256h-254v510zM256 768v510h254v-256h256v-254h-510z" />
<glyph unicode="&#xa3;" d="M0 0v1278h510v-254h-254l-2 -770l258 2v1022h254v-1278h-766z" />
<glyph unicode="&#xa4;" d="M0 0v1278h510v-254h-254l-2 -770l258 2v1022h254v-1278h-766z" />
<glyph unicode="&#xa5;" d="M0 0v1278h510v-254h-254l-2 -770l258 2v1022h254v-1278h-766z" />
<glyph unicode="&#xa6;" horiz-adv-x="512" d="M0 0v510h254v-766h-254v256zM0 1024v766h254v-766h-254z" />
<glyph unicode="&#xa7;" d="M0 0v1278h510v-254h-254l-2 -770l258 2v1022h254v-1278h-766z" />
<glyph unicode="&#xa8;" d="M0 1280v254h254v-254h-254zM512 1280v254h254v-254h-254z" />
<glyph unicode="&#xa9;" horiz-adv-x="2048" d="M0 256v1022h254v-256h256v-510h-254l-2 -256h-254zM256 0v254h254v-254h-254zM256 1280v254h254v-254h-254zM512 -2h766v-254h-766v254zM512 256v254h766v-254h-766zM512 1024v254h766v-254h-254h-512zM512 1536v254h766v-254h-254h-512zM1280 0v254h254v-254h-254z M1280 1280v254h254v-254h-254zM1536 256v1022h254v-1022h-254z" />
<glyph unicode="&#xaa;" d="M0 0v1278h510v-254h-254l-2 -770l258 2v1022h254v-1278h-766z" />
<glyph unicode="&#xab;" horiz-adv-x="1280" d="M0 512v254h254v-254h-254zM256 256v254h254v-254h-254zM256 768v254h254v-254h-254zM512 512v254h254v-254h-254zM768 256v254h254v-254h-254zM768 768v254h254v-254h-254z" />
<glyph unicode="&#xac;" d="M0 0v1278h510v-254h-254l-2 -770l258 2v1022h254v-1278h-766z" />
<glyph unicode="&#xad;" horiz-adv-x="768" d="M0 512v254h510v-254h-510z" />
<glyph unicode="&#xae;" d="M0 0v1278h510v-254h-254l-2 -770l258 2v1022h254v-1278h-766z" />
<glyph unicode="&#xaf;" d="M0 1792v254h766v-254h-510h-256z" />
<glyph unicode="&#xb0;" d="M0 1536v254h254v-254h-254zM256 1280v254h254v-254h-254zM256 1792v254h254v-254h-254zM512 1536v254h254v-254h-254z" />
<glyph unicode="&#xb1;" d="M0 0v254h766v-254h-766zM0 768v254l256 2v254h254v-256h256v-254h-254l-2 -256h-254v256h-256z" />
<glyph unicode="&#xb2;" d="M0 0v1278h510v-254h-254l-2 -770l258 2v1022h254v-1278h-766z" />
<glyph unicode="&#xb3;" d="M0 0v1278h510v-254h-254l-2 -770l258 2v1022h254v-1278h-766z" />
<glyph unicode="&#xb4;" horiz-adv-x="768" d="M0 1280v254h254v-254h-254zM256 1536v254h254v-254h-254z" />
<glyph unicode="&#xb5;" d="M0 0v1278h510v-254h-254l-2 -770l258 2v1022h254v-1278h-766z" />
<glyph unicode="&#xb6;" horiz-adv-x="1536" d="M0 768v510l256 2v254h1022v-254h-254l-2 -1536h-254v1536h-256l-2 -1536h-254v1024h-256z" />
<glyph unicode="&#xb7;" horiz-adv-x="512" d="M0 512v254h254v-254h-254z" />
<glyph unicode="&#xb8;" horiz-adv-x="768" d="M0 -256h256v254h254v-510h-510v256z" />
<glyph unicode="&#xb9;" d="M0 0v1278h510v-254h-254l-2 -770l258 2v1022h254v-1278h-766z" />
<glyph unicode="&#xba;" d="M0 0v1278h510v-254h-254l-2 -770l258 2v1022h254v-1278h-766z" />
<glyph unicode="&#xbb;" horiz-adv-x="1280" d="M0 256v254h254v-254h-254zM0 768v254h254v-254h-254zM256 512v254h254v-254h-254zM512 256v254h254v-254h-254zM512 768v254h254v-254h-254zM768 512v254h254v-254h-254z" />
<glyph unicode="&#xbc;" d="M0 0v1278h510v-254h-254l-2 -770l258 2v1022h254v-1278h-766z" />
<glyph unicode="&#xbd;" d="M0 0v1278h510v-254h-254l-2 -770l258 2v1022h254v-1278h-766z" />
<glyph unicode="&#xbe;" d="M0 0v1278h510v-254h-254l-2 -770l258 2v1022h254v-1278h-766z" />
<glyph unicode="&#xbf;" d="M0 0v510h254v-510h-254zM256 -2h254v-254h-254v254zM256 512v254h254v-254h-254zM256 1024v254h254v-254h-254zM512 0v254h254v-254h-254z" />
<glyph unicode="&#xc0;" d="M0 0v1278h254v-512l258 2v510h254v-1278h-254v512h-256l-2 -512h-254zM0 2048v254h254v-254h-254zM256 1280v254h254v-254h-254zM256 1792v254h254v-254h-254z" />
<glyph unicode="&#xc1;" d="M0 0v1278h254v-512l258 2v510h254v-1278h-254v512h-256l-2 -512h-254zM256 1280v254h254v-254h-254zM256 1792v254h254v-254h-254zM512 2048v254h254v-254h-254z" />
<glyph unicode="&#xc2;" d="M0 0v1278h254v-512l258 2v510h254v-1278h-254v512h-256l-2 -512h-254zM0 1792v254h254v-254h-254zM256 1280v254h254v-254h-254zM256 2048v254h254v-254h-254zM512 1792v254h254v-254h-254z" />
<glyph unicode="&#xc3;" d="M0 0v1278h254v-512l258 2v510h254v-1278h-254v512h-256l-2 -512h-254zM0 1792v254h766v-254h-510h-256zM256 1280v254h254v-254h-254z" />
<glyph unicode="&#xc4;" d="M0 0v1278h254v-512l258 2v510h254v-1278h-254v512h-256l-2 -512h-254zM0 1792v254h254v-254h-254zM256 1280v254h254v-254h-254zM512 1792v254h254v-254h-254z" />
<glyph unicode="&#xc5;" d="M0 0v1278h254v-512l258 2v510h254v-1278h-254v512h-256l-2 -512h-254zM256 1280v254h254v-254h-254zM256 1792v254h254v-254h-254z" />
<glyph unicode="&#xc6;" d="M0 0v1278h510v-254h-254l-2 -770l258 2v1022h254v-1278h-766z" />
<glyph unicode="&#xc7;" d="M0 0h256v254h254v-510h-510v256zM0 256v1022h254v-1022h-254zM256 1280v254h254v-254h-254zM512 256v254h254v-254h-254zM512 1024v254h254v-254h-254z" />
<glyph unicode="&#xc8;" horiz-adv-x="768" d="M0 0v1534h510v-254h-254l-2 -258h256v-254h-254l-2 -514h256v-254h-510zM0 2048v254h254v-254h-254zM256 1792v254h254v-254h-254z" />
<glyph unicode="&#xc9;" horiz-adv-x="768" d="M0 0v1534h510v-254h-254l-2 -258h256v-254h-254l-2 -514h256v-254h-510zM0 1792v254h254v-254h-254zM256 2048v254h254v-254h-254z" />
<glyph unicode="&#xca;" d="M0 0v1534h510v-254h-254l-2 -258h256v-254h-254l-2 -514h256v-254h-510zM0 1792v254h254v-254h-254zM256 2048v254h254v-254h-254zM512 1792v254h254v-254h-254z" />
<glyph unicode="&#xcb;" d="M0 0v1534h510v-254h-254l-2 -258h256v-254h-254l-2 -514h256v-254h-510zM0 1792v254h254v-254h-254zM512 1792v254h254v-254h-254z" />
<glyph unicode="&#xcc;" horiz-adv-x="768" d="M0 2048v254h254v-254h-254zM256 0v1534h254v-1534h-254zM256 1792v254h254v-254h-254z" />
<glyph unicode="&#xcd;" horiz-adv-x="768" d="M0 0v1534h254v-1534h-254zM0 1792v254h254v-254h-254zM256 2048v254h254v-254h-254z" />
<glyph unicode="&#xce;" d="M0 1792v254h254v-254h-254zM256 0v1534h254v-1534h-254zM256 2048v254h254v-254h-254zM512 1792v254h254v-254h-254z" />
<glyph unicode="&#xcf;" d="M0 1792v254h254v-254h-254zM256 0v1534h254v-1534h-254zM512 1792v254h254v-254h-254z" />
<glyph unicode="&#xd0;" d="M0 0v1278h510v-254h-254l-2 -770l258 2v1022h254v-1278h-766z" />
<glyph unicode="&#xd1;" horiz-adv-x="1280" d="M0 0v1534h254v-512h256v-254h-254l-2 -768h-254zM256 1792v254h510v-254h-254h-256zM512 512v254l256 2v766h254v-1534h-254v512h-256z" />
<glyph unicode="&#xd2;" d="M0 256v1022h254v-1022h-254zM0 2048v254h254v-254h-254zM256 0v254h254v-254h-254zM256 1280v254h254v-254h-254zM256 1792v254h254v-254h-254zM512 256v1022h254v-1022h-254z" />
<glyph unicode="&#xd3;" d="M0 256v1022h254v-1022h-254zM256 0v254h254v-254h-254zM256 1280v254h254v-254h-254zM256 1792v254h254v-254h-254zM512 256v1022h254v-1022h-254zM512 2048v254h254v-254h-254z" />
<glyph unicode="&#xd4;" d="M0 256v1022h254v-1022h-254zM0 1792v254h254v-254h-254zM256 0v254h254v-254h-254zM256 1280v254h254v-254h-254zM256 2048v254h254v-254h-254zM512 256v1022h254v-1022h-254zM512 1792v254h254v-254h-254z" />
<glyph unicode="&#xd5;" d="M0 256v1022h254v-1022h-254zM0 1792v254h766v-254h-510h-256zM256 0v254h254v-254h-254zM256 1280v254h254v-254h-254zM512 256v1022h254v-1022h-254z" />
<glyph unicode="&#xd6;" d="M0 256v1022h254v-1022h-254zM0 1792v254h254v-254h-254zM256 0v254h254v-254h-254zM256 1280v254h254v-254h-254zM512 256v1022h254v-1022h-254zM512 1792v254h254v-254h-254z" />
<glyph unicode="&#xd7;" d="M0 256v254h254v-254h-254zM0 768v254h254v-254h-254zM256 512v254h254v-254h-254zM512 256v254h254v-254h-254zM512 768v254h254v-254h-254z" />
<glyph unicode="&#xd8;" d="M0 256v1022h254v-1022h-254zM256 0v254h254v-254h-254zM256 1280v254h254v-254h-254zM512 256v1022h254v-1022h-254z" />
<glyph unicode="&#xd9;" d="M0 256v1278h254v-1278h-254zM0 2048v254h254v-254h-254zM256 0v254h254v-254h-254zM256 1792v254h254v-254h-254zM512 256v1278h254v-1278h-254z" />
<glyph unicode="&#xda;" d="M0 256v1278h254v-1278h-254zM256 0v254h254v-254h-254zM256 1792v254h254v-254h-254zM512 256v1278h254v-1278h-254zM512 2048v254h254v-254h-254z" />
<glyph unicode="&#xdb;" d="M0 256v1278h254v-1278h-254zM0 1792v254h254v-254h-254zM256 0v254h254v-254h-254zM256 2048v254h254v-254h-254zM512 256v1278h254v-1278h-254zM512 1792v254h254v-254h-254z" />
<glyph unicode="&#xdc;" d="M0 256v1278h254v-1278h-254zM0 1792v254h254v-254h-254zM256 0v254h254v-254h-254zM512 256v1278h254v-1278h-254zM512 1792v254h254v-254h-254z" />
<glyph unicode="&#xdd;" d="M0 768v766h254v-766h-254zM256 0v766h254v-766h-254zM256 1792v254h254v-254h-254zM512 768v766h254v-766h-254zM512 2048v254h254v-254h-254z" />
<glyph unicode="&#xde;" d="M0 0v1278h510v-254h-254l-2 -770l258 2v1022h254v-1278h-766z" />
<glyph unicode="&#xdf;" d="M0 0v1278h510v-254h-254l-2 -770l258 2v1022h254v-1278h-766z" />
<glyph unicode="&#xe0;" d="M0 0v510h254v-256l258 2v256h-256v256h-256v254h510v-256h256v-766h-766zM0 1536v254h254v-254h-254zM256 1280v254h254v-254h-254z" />
<glyph unicode="&#xe1;" d="M0 0v510h254v-256l258 2v256h-256v256h-256v254h510v-256h256v-766h-766zM256 1280v254h254v-254h-254zM512 1536v254h254v-254h-254z" />
<glyph unicode="&#xe2;" d="M0 0v510h254v-256l258 2v256h-256v256h-256v254h510v-256h256v-766h-766zM0 1280v254h254v-254h-254zM256 1536v254h254v-254h-254zM512 1280v254h254v-254h-254z" />
<glyph unicode="&#xe3;" d="M0 0v510h254v-256l258 2v256h-256v256h-256v254h510v-256h256v-766h-766zM0 1280v254h766v-254h-510h-256z" />
<glyph unicode="&#xe4;" d="M0 0v510h254v-256l258 2v256h-256v256h-256v254h510v-256h256v-766h-766zM0 1280v254h254v-254h-254zM512 1280v254h254v-254h-254z" />
<glyph unicode="&#xe5;" d="M0 0v510h254v-256l258 2v256h-256v256h-256v254h510v-256h256v-766h-766zM256 1280v254h254v-254h-254z" />
<glyph unicode="&#xe6;" d="M0 0v1278h510v-254h-254l-2 -770l258 2v1022h254v-1278h-766z" />
<glyph unicode="&#xe7;" d="M0 256v510h254v-510h-254zM256 0v254h510v-766h-510v256h256v256h-256zM256 768v254h510v-254h-510z" />
<glyph unicode="&#xe8;" d="M0 256v510h254v-256h256v-256h256v-254h-510v256h-256zM0 1536v254h254v-254h-254zM256 768v254h254v-254h-254zM256 1280v254h254v-254h-254zM512 512v254h254v-254h-254z" />
<glyph unicode="&#xe9;" d="M0 256v510h254v-256h256v-256h256v-254h-510v256h-256zM256 768v254h254v-254h-254zM256 1280v254h254v-254h-254zM512 512v254h254v-254h-254zM512 1536v254h254v-254h-254z" />
<glyph unicode="&#xea;" d="M0 256v510h254v-256h256v-256h256v-254h-510v256h-256zM0 1280v254h254v-254h-254zM256 768v254h254v-254h-254zM256 1536v254h254v-254h-254zM512 512v254h254v-254h-254zM512 1280v254h254v-254h-254z" />
<glyph unicode="&#xeb;" d="M0 256v510h254v-256h256v-256h256v-254h-510v256h-256zM0 1280v254h254v-254h-254zM256 768v254h254v-254h-254zM512 512v254h254v-254h-254zM512 1280v254h254v-254h-254z" />
<glyph unicode="&#xec;" horiz-adv-x="768" d="M0 1536v254h254v-254h-254zM256 0v1022h254v-1022h-254zM256 1280v254h254v-254h-254z" />
<glyph unicode="&#xed;" horiz-adv-x="768" d="M0 0v1022h254v-1022h-254zM0 1280v254h254v-254h-254zM256 1536v254h254v-254h-254z" />
<glyph unicode="&#xee;" d="M0 1280v254h254v-254h-254zM256 0v1022h254v-1022h-254zM256 1536v254h254v-254h-254zM512 1280v254h254v-254h-254z" />
<glyph unicode="&#xef;" d="M0 1280v254h254v-254h-254zM256 0v1022h254v-1022h-254zM512 1280v254h254v-254h-254z" />
<glyph unicode="&#xf0;" d="M0 256v510h254v-510h-254zM256 0v254h254v-254h-254zM256 768v254h254v-254h-254zM512 256v510h254v-510h-254z" />
<glyph unicode="&#xf1;" d="M0 0v1022h510v-254h-254l-2 -768h-254zM0 1280v254h766v-254h-510h-256zM512 0v766h254v-766h-254z" />
<glyph unicode="&#xf2;" d="M0 256v510h254v-510h-254zM0 1536v254h254v-254h-254zM256 0v254h254v-254h-254zM256 768v254h254v-254h-254zM256 1280v254h254v-254h-254zM512 256v510h254v-510h-254z" />
<glyph unicode="&#xf3;" d="M0 256v510h254v-510h-254zM256 0v254h254v-254h-254zM256 768v254h254v-254h-254zM256 1280v254h254v-254h-254zM512 256v510h254v-510h-254zM512 1536v254h254v-254h-254z" />
<glyph unicode="&#xf4;" d="M0 256v510h254v-510h-254zM0 1280v254h254v-254h-254zM256 0v254h254v-254h-254zM256 768v254h254v-254h-254zM256 1536v254h254v-254h-254zM512 256v510h254v-510h-254zM512 1280v254h254v-254h-254z" />
<glyph unicode="&#xf5;" d="M0 256v510h254v-510h-254zM0 1280v254h766v-254h-510h-256zM256 0v254h254v-254h-254zM256 768v254h254v-254h-254zM512 256v510h254v-510h-254z" />
<glyph unicode="&#xf6;" d="M0 256v510h254v-510h-254zM0 1280v254h254v-254h-254zM256 0v254h254v-254h-254zM256 768v254h254v-254h-254zM512 256v510h254v-510h-254zM512 1280v254h254v-254h-254z" />
<glyph unicode="&#xf7;" d="M0 512v254h766v-254h-766zM256 0v254h254v-254h-254zM256 1024v254h254v-254h-254z" />
<glyph unicode="&#xf8;" d="M0 256v510h254v-510h-254zM256 0v254h254v-254h-254zM256 768v254h254v-254h-254zM512 256v510h254v-510h-254z" />
<glyph unicode="&#xf9;" d="M0 256v766h254v-766h-254zM0 1536v254h254v-254h-254zM256 0v256h256v766h254v-1022h-510zM256 1280v254h254v-254h-254z" />
<glyph unicode="&#xfa;" d="M0 256v766h254v-766h-254zM256 0v256h256v766h254v-1022h-510zM256 1280v254h254v-254h-254zM512 1536v254h254v-254h-254z" />
<glyph unicode="&#xfb;" d="M0 256v766h254v-766h-254zM0 1280v254h254v-254h-254zM256 0v256h256v766h254v-1022h-510zM256 1536v254h254v-254h-254zM512 1280v254h254v-254h-254z" />
<glyph unicode="&#xfc;" d="M0 256v766h254v-766h-254zM0 1280v254h254v-254h-254zM256 0v256h256v766h254v-1022h-510zM512 1280v254h254v-254h-254z" />
<glyph unicode="&#xfd;" d="M0 256v766h254v-766h-254zM0 -258h254v-254h-254v254zM256 254h254v-510h-254v510zM256 1280v254h254v-254h-254zM512 256v766h254v-766h-254zM512 1536v254h254v-254h-254z" />
<glyph unicode="&#xfe;" d="M0 0v1278h510v-254h-254l-2 -770l258 2v1022h254v-1278h-766z" />
<glyph unicode="&#xff;" d="M0 256v766h254v-766h-254zM0 -258h254v-254h-254v254zM0 1280v254h254v-254h-254zM256 254h254v-510h-254v510zM512 256v766h254v-766h-254zM512 1280v254h254v-254h-254z" />
<glyph unicode="&#x152;" d="M0 0v1278h510v-254h-254l-2 -770l258 2v1022h254v-1278h-766z" />
<glyph unicode="&#x153;" d="M0 0v1278h510v-254h-254l-2 -770l258 2v1022h254v-1278h-766z" />
<glyph unicode="&#x178;" d="M0 768v766h254v-766h-254zM0 1792v254h254v-254h-254zM256 0v766h254v-766h-254zM512 768v766h254v-766h-254zM512 1792v254h254v-254h-254z" />
<glyph unicode="&#x2c6;" d="M0 1280v254h254v-254h-254zM256 1536v254h254v-254h-254zM512 1280v254h254v-254h-254z" />
<glyph unicode="&#x2dc;" horiz-adv-x="1280" d="M0 1536v254h254v-254h-254zM256 1792v254h254v-254h-254zM512 1536v254h254v-254h-254zM768 1792v254h254v-254h-254z" />
<glyph unicode="&#x2000;" horiz-adv-x="1151" />
<glyph unicode="&#x2001;" horiz-adv-x="2302" />
<glyph unicode="&#x2002;" horiz-adv-x="1151" />
<glyph unicode="&#x2003;" horiz-adv-x="2302" />
<glyph unicode="&#x2004;" horiz-adv-x="767" />
<glyph unicode="&#x2005;" horiz-adv-x="575" />
<glyph unicode="&#x2006;" horiz-adv-x="383" />
<glyph unicode="&#x2007;" horiz-adv-x="383" />
<glyph unicode="&#x2008;" horiz-adv-x="287" />
<glyph unicode="&#x2009;" horiz-adv-x="460" />
<glyph unicode="&#x200a;" horiz-adv-x="127" />
<glyph unicode="&#x2010;" horiz-adv-x="768" d="M0 512v254h510v-254h-510z" />
<glyph unicode="&#x2011;" horiz-adv-x="768" d="M0 512v254h510v-254h-510z" />
<glyph unicode="&#x2012;" horiz-adv-x="768" d="M0 512v254h510v-254h-510z" />
<glyph unicode="&#x2013;" d="M0 512v254h766v-254h-766z" />
<glyph unicode="&#x2014;" horiz-adv-x="1792" d="M0 512v254h1534v-254h-1534z" />
<glyph unicode="&#x2018;" horiz-adv-x="512" d="M0 1024v510h254v-510h-254z" />
<glyph unicode="&#x2019;" horiz-adv-x="512" d="M0 1024v510h254v-510h-254z" />
<glyph unicode="&#x201a;" horiz-adv-x="768" d="M0 -2h254v-254h-254v254zM256 0v254h254v-254h-254z" />
<glyph unicode="&#x201c;" d="M0 1024v510h254v-510h-254zM512 1024v510h254v-510h-254z" />
<glyph unicode="&#x201d;" d="M0 1024v510h254v-510h-254zM512 1024v510h254v-510h-254z" />
<glyph unicode="&#x201e;" horiz-adv-x="1280" d="M0 -2h254v-254h-254v254zM256 0v254h254v-254h-254zM512 -2h254v-254h-254v254zM768 0v254h254v-254h-254z" />
<glyph unicode="&#x2022;" horiz-adv-x="768" d="M0 256v510h510v-510h-510z" />
<glyph unicode="&#x2026;" horiz-adv-x="1536" d="M0 0v254h254v-254h-254zM512 0v254h254v-254h-254zM1024 0v254h254v-254h-254z" />
<glyph unicode="&#x202f;" horiz-adv-x="460" />
<glyph unicode="&#x2039;" d="M0 256v254h510v-254h-254h-256zM512 0v254h254v-254h-254zM512 512v254h254v-254h-254z" />
<glyph unicode="&#x203a;" d="M0 0v254h254v-254h-254zM0 512v254h254v-254h-254zM256 256v254h510v-254h-510z" />
<glyph unicode="&#x205f;" horiz-adv-x="575" />
<glyph unicode="&#x2122;" horiz-adv-x="1792" d="M0 1280v254h1534v-766h-254v256h-256l-2 -256h-254v512h-256l-2 -512h-254v512h-256z" />
<glyph unicode="&#xe000;" d="M0 0v1024h1024v-1024h-1024z" />
</font>
</defs>
</svg>
